<?xml version="1.0" standalone="no"?><!DOCTYPE svg PUBLIC "-//W3C//DTD SVG 1.1//EN" "http://www.w3.org/Graphics/SVG/1.1/DTD/svg11.dtd"><svg t="1548430935873" class="icon" style="" viewBox="0 0 1024 1024" version="1.1" xmlns="http://www.w3.org/2000/svg" p-id="3098" xmlns:xlink="http://www.w3.org/1999/xlink" width="200" height="200"><defs><style type="text/css"></style></defs><path d="M837.12 801.28l-289.28-289.28 289.28-289.28c10.24-10.24 10.24-25.6 0-35.84-10.24-10.24-25.6-10.24-35.84 0l-289.28 289.28-289.28-289.28c-10.24-10.24-25.6-10.24-35.84 0-10.24 10.24-10.24 25.6 0 35.84l289.28 289.28-289.28 289.28c-10.24 10.24-10.24 25.6 0 35.84 10.24 10.24 25.6 10.24 35.84 0l289.28-289.28 289.28 289.28c10.24 10.24 25.6 10.24 35.84 0 10.24-10.24 10.24-25.6 0-35.84z" p-id="3099" fill="#ffffff"></path></svg>